<svg width="72" height="70" viewBox="0 0 88 86" fill="none" xmlns="http://www.w3.org/2000/svg">
<path d="M29.8876 73.7522C29.8752 73.8115 29.8511 73.8658 29.8344 73.9235C31.8679 74.9435 41.0376 79.542 41.7276 79.8503C42.4717 80.1833 43.543 80.4319 44.003 80.4319C44.463 80.4319 45.5333 80.1833 46.2774 79.8503C46.9674 79.542 56.138 74.9434 58.1716 73.9234C58.1549 73.8658 58.1308 73.8114 58.1183 73.7522H29.8876Z" fill="black"/>
<path d="M31.0268 70.2402C33.536 70.3098 37.7797 70.3904 44.003 70.3904C50.2263 70.3904 54.47 70.3098 56.9792 70.2402L54.2842 67.2214V69.3225C54.2842 69.8308 53.8712 70.2444 53.3624 70.2444H51.7374C51.2286 70.2444 50.8155 69.8308 50.8155 69.3225V63.0935L49.878 61.7927V69.3225C49.878 69.8308 49.4649 70.2444 48.9561 70.2444H47.3624C46.8536 70.2444 46.4405 69.8308 46.4405 69.3225V58.3381H45.503V69.7444C45.503 70.0208 45.2794 70.2444 45.003 70.2444H43.003C42.7266 70.2444 42.503 70.0208 42.503 69.7444V58.3381H41.5655V69.3225C41.5655 69.8308 41.1524 70.2444 40.6436 70.2444H39.0499C38.5411 70.2444 38.128 69.8308 38.128 69.3225V61.7927L37.1905 63.0935V69.3225C37.1905 69.8308 36.7774 70.2444 36.2686 70.2444H34.6436C34.1348 70.2444 33.7217 69.8308 33.7217 69.3225V67.2214L31.0268 70.2402Z" fill="black"/>
<path d="M27.5108 71.8225C26.8823 71.8225 26.353 72.2332 26.162 72.7982C26.1599 72.803 26.1595 72.8084 26.1573 72.8132C26.1119 72.9524 26.0811 73.0981 26.0811 73.2522C26.0811 74.0403 26.7227 74.6819 27.5108 74.6819C28.2989 74.6819 28.9405 74.0403 28.9405 73.2522C28.9405 72.4641 28.2989 71.8225 27.5108 71.8225Z" fill="black"/>
<path d="M46.4649 54.4167C46.4346 53.9343 46.4034 53.4382 46.3594 53.0266C46.2755 52.2463 44.8936 51.6819 44.003 51.6819C43.1114 51.6819 41.7296 52.2463 41.6456 53.0266C41.6016 53.4392 41.5704 53.9368 41.5411 54.4197C41.503 55.03 41.4717 55.4763 41.4327 55.8069H46.5733C46.5342 55.4758 46.503 55.0286 46.4649 54.4167Z" fill="black"/>
<path d="M22.7989 45.9338C25.3233 46.7307 30.8555 46.5994 34.6319 45.6555C37.6827 44.8923 39.1817 44.3616 39.6768 44.1555C39.751 43.0354 39.9073 38.4641 39.5079 35.1238C39.5069 35.1169 39.5049 35.1106 39.4932 35.1033C38.587 34.5774 33.7764 31.9529 28.0655 31.9529C21.8497 31.9529 20.6456 37.4211 20.4171 39.7717C20.2969 41.0037 20.1153 45.0891 22.7989 45.9338ZM22.0422 42.0517C22.2166 41.3384 22.4531 40.6588 22.6965 39.9858C22.9301 39.3235 23.2299 38.6183 23.6027 37.9811C24.346 36.6894 25.4727 35.5997 26.7892 34.8895C28.1215 34.2026 29.5894 33.8605 31.0399 33.8134C32.4904 33.7497 33.9269 33.8926 35.3305 34.2045C36.7101 34.5753 38.0933 35.0807 39.1901 35.9944C37.9732 35.2729 36.6068 34.8861 35.236 34.6826C33.8665 34.479 32.4622 34.4251 31.0975 34.577C29.7359 34.7295 28.4019 35.06 27.2419 35.718C26.0925 36.3779 25.1158 37.3207 24.4642 38.4877C23.8015 39.6199 23.3449 40.9927 22.9594 42.2867C22.7842 42.9283 22.6436 43.6198 22.7622 44.1464C22.8592 44.6626 23.3377 44.8511 24.0435 45.005C25.3823 45.2934 26.7943 45.4319 28.1902 45.5356C29.5908 45.6589 30.9971 45.7242 32.4089 45.6506C29.6082 46.1501 26.7571 46.1216 23.8964 45.7601C23.5371 45.6973 23.1674 45.644 22.7537 45.4401C22.353 45.2358 22.0167 44.8019 21.9155 44.3717C21.7081 43.5095 21.8876 42.7662 22.0422 42.0517Z" fill="black"/>
<path d="M29.7217 70.2003L33.8487 65.5779C33.9874 65.4236 34.2081 65.3704 34.3995 65.4436C34.5938 65.5178 34.7217 65.7034 34.7217 65.9109V69.2444H36.1905V62.9319C36.1905 62.8269 36.2237 62.7249 36.2852 62.6394L38.2227 59.9519C38.3497 59.7761 38.5733 59.7019 38.7813 59.7688C38.9883 59.8352 39.128 60.0276 39.128 60.2444V69.2444H40.5655V57.8381C40.5655 57.5618 40.7891 57.3381 41.0655 57.3381H43.003C43.2794 57.3381 43.503 57.5618 43.503 57.8381V69.2444H44.503V57.8381C44.503 57.5618 44.7266 57.3381 45.003 57.3381H46.9405C47.2169 57.3381 47.4405 57.5618 47.4405 57.8381V69.2444H48.878V60.2444C48.878 60.0276 49.0176 59.8352 49.2247 59.7688C49.4288 59.7009 49.6563 59.7761 49.7833 59.9519L51.7208 62.6394C51.7823 62.7249 51.8155 62.8269 51.8155 62.9319V69.2444H53.2842V65.9109C53.2842 65.7034 53.4122 65.5178 53.6065 65.4436C53.7999 65.3704 54.0196 65.4236 54.1573 65.5779L58.2843 70.2003C58.4486 70.1948 58.6025 70.1893 58.7393 70.1843C57.978 69.3275 56.5818 67.7472 54.5227 65.3878C54.5226 65.3876 54.5224 65.3875 54.5222 65.3873C54.4235 65.2742 54.3313 65.1687 54.2296 65.052C50.5704 60.8533 48.2442 55.7043 48.2256 55.6584C48.1407 55.446 48.0587 54.7112 47.8448 52.2419C47.7344 51.5627 46.3233 49.4529 44.003 49.4529C41.6837 49.4529 40.2715 51.5632 40.1622 52.2039C39.9317 54.9143 39.8575 55.4651 39.7803 55.6589C39.7608 55.7068 37.4659 60.8196 33.7755 65.052C33.6736 65.1688 33.5814 65.2744 33.4826 65.3876C33.4825 65.3876 33.4825 65.3877 33.4825 65.3877C31.4233 67.7476 30.028 69.3275 29.2667 70.1843C29.4034 70.1893 29.5574 70.1948 29.7217 70.2003ZM40.3799 56.0618C40.4473 55.8879 40.502 55.0032 40.543 54.3577C40.5733 53.8591 40.6055 53.3459 40.6514 52.9202C40.8057 51.4788 42.7315 50.6819 44.003 50.6819C45.2745 50.6819 47.1993 51.4788 47.3536 52.9202C47.3995 53.345 47.4317 53.8567 47.463 54.3542C47.501 54.9646 47.5587 55.8875 47.6348 56.0789C47.7217 56.2336 47.7159 56.4148 47.626 56.5681C47.5372 56.7214 47.3682 56.8069 47.1905 56.8069H40.8155C40.6378 56.8069 40.4737 56.7126 40.3839 56.5593C40.294 56.406 40.293 56.2166 40.3799 56.0618Z" fill="black"/>
<path d="M58.8311 67.427L56.8199 66.4952C58.3264 68.2136 59.3189 69.3326 59.8083 69.8816L58.8311 67.427Z" fill="black"/>
<path d="M58.0688 71.208C58.0684 71.208 58.0679 71.2083 58.0674 71.2083C58.0671 71.2083 58.0669 71.2081 58.0666 71.2081C55.7797 71.2822 51.2192 71.3904 44.003 71.3904C35.1747 71.3904 30.3023 71.2283 28.7339 71.1649C29.3141 71.5063 29.745 72.0736 29.8876 72.7522H58.1183C58.261 72.0736 58.6919 71.5063 59.272 71.1649C58.9861 71.1765 58.5786 71.1915 58.0688 71.208Z" fill="black"/>
<path d="M29.1749 67.427L28.196 69.8835C28.6846 69.3349 29.6771 68.2152 31.1845 66.4958L29.1749 67.427Z" fill="black"/>
<path d="M60.4952 74.6819C61.2848 74.6819 61.9249 74.0418 61.9249 73.2522C61.9249 72.4626 61.2848 71.8225 60.4952 71.8225C59.7056 71.8225 59.0655 72.4626 59.0655 73.2522C59.0655 74.0418 59.7056 74.6819 60.4952 74.6819Z" fill="black"/>
<path d="M83.4063 59.1389C80.6143 51.175 73.087 35.6604 73.0108 35.5046C72.9903 35.4602 72.9747 35.4133 72.9669 35.3645C72.9639 35.3425 72.876 34.7659 72.338 29.2722C70.3809 13.99 70.1153 13.1467 65.2305 6.73511C62.3292 2.927 56.1768 0.993408 47.8838 1.29614C47.7061 1.30249 47.5772 1.30688 47.503 1.30688C47.2266 1.30688 47.003 1.08325 47.003 0.806885C47.003 0.51001 45.5919 0.10376 44.003 0.0681152C42.4141 0.10376 41.003 0.51001 41.003 0.806885C41.003 1.08325 40.7794 1.30688 40.503 1.30688C40.4288 1.30688 40.2999 1.30249 40.1212 1.29614C39.5626 1.27563 39.0108 1.26538 38.4717 1.26538C31.0186 1.26538 25.4805 3.18481 22.7755 6.73511C17.8907 13.1467 17.6251 13.99 15.6651 29.2869C15.1299 34.7664 15.0411 35.3435 15.0372 35.3655C15.0303 35.4138 15.0147 35.4607 14.9942 35.5046C14.918 35.6604 7.39069 51.1755 4.59967 59.1389C3.76862 61.5105 3.08405 63.4128 2.53131 64.947C1.66406 67.3583 1.12347 68.8666 0.8609 69.8356C1.00861 69.8041 1.17175 69.7823 1.35748 69.7771C1.55865 69.1804 1.78717 68.4558 2.05475 67.6101C3.69147 62.4255 6.73834 52.7747 13.6485 40.3142C19.3038 30.9739 22.7501 29.2234 26.6719 29.3069C30.3497 29.3992 32.2364 29.9856 34.8477 30.7976L35.1514 30.8918C37.0207 31.4723 38.6659 31.8879 39.4988 32.0884L40.1613 17.2324L40.4918 9.49988C40.5647 6.92303 40.6754 4.34192 40.5443 1.7652C40.7587 4.3382 40.7315 6.92432 40.7418 9.50458L40.6611 17.2465L40.4784 32.1423C41.1961 32.0571 42.5027 31.9319 44.003 31.9319C45.502 31.9319 46.8088 32.0571 47.5269 32.1422L47.3441 17.2465L47.2634 9.50458C47.2738 6.92432 47.2466 4.3382 47.4609 1.7652C47.3299 4.34192 47.4406 6.92303 47.5135 9.49988L47.844 17.2324L48.5065 32.0886C49.3397 31.8878 50.9861 31.4717 52.8546 30.8918L53.1583 30.7976C55.7696 29.9856 57.6563 29.3992 61.334 29.3069C65.3174 29.2024 68.7012 30.9749 74.3467 40.2981C81.2667 52.7747 84.3135 62.4255 85.9503 67.6101C86.2178 68.4558 86.4463 69.1804 86.6475 69.7771C86.834 69.7823 86.9976 69.8044 87.1457 69.8361C86.8836 68.8723 86.3434 67.3647 85.4756 64.9524C84.9229 63.4167 84.2383 61.5129 83.4063 59.1389ZM34.5934 24.1821C33.486 23.9365 32.3911 23.6733 31.2913 23.5402C30.1978 23.4199 29.0814 23.3206 28.0013 23.4509L27.1906 23.5168C26.9202 23.5368 26.6606 23.6255 26.3952 23.6757L25.6032 23.8516L24.8422 24.1346C22.8016 24.8703 21.0067 26.2151 19.4888 27.8236C18.7067 28.6113 18.0307 29.5047 17.3894 30.4217C16.7263 31.3289 16.1586 32.303 15.6276 33.3069C16.3083 31.1339 17.4496 29.1022 18.9152 27.3163C20.3592 25.5143 22.2744 24.0256 24.493 23.1982C26.7181 22.3788 29.1649 22.3051 31.4189 22.7817C33.6935 23.2634 35.7661 24.1294 37.9609 24.7236C36.8276 24.6262 35.7081 24.399 34.5934 24.1821ZM70.6158 30.4217C69.9745 29.5047 69.2986 28.6113 68.5165 27.8236C66.9986 26.2151 65.2036 24.8703 63.163 24.1346L62.402 23.8516L61.61 23.6757C61.3447 23.6255 61.085 23.5368 60.8147 23.5168L60.004 23.4509C58.9239 23.3206 57.8075 23.4199 56.7139 23.5402C55.6142 23.6733 54.5193 23.9365 53.4119 24.1821C52.2971 24.399 51.1777 24.6262 50.0443 24.7236C52.2391 24.1294 54.3118 23.2634 56.5863 22.7817C58.8404 22.3051 61.2872 22.3788 63.5123 23.1982C65.7308 24.0256 67.6461 25.5143 69.09 27.3163C70.5557 29.1022 71.697 31.1339 72.3776 33.3069C71.8466 32.303 71.279 31.3289 70.6158 30.4217Z" fill="black"/>
<path d="M86.3321 70.7844C86.1065 70.7971 85.8965 70.6648 85.8223 70.4514C85.5899 69.7898 85.3214 68.9387 84.9971 67.9114C83.3712 62.76 80.3438 53.1716 73.4815 40.7996C68.0987 31.9084 64.9805 30.2117 61.3594 30.3069C57.8204 30.3953 55.9893 30.9646 53.4551 31.7522L53.1514 31.8469C50.4444 32.6873 48.1651 33.196 48.1426 33.2014C48.0821 33.2146 48.0196 33.217 47.9581 33.2073C47.9405 33.2043 46.1436 32.9319 44.003 32.9319C41.8614 32.9319 40.0655 33.2043 40.0479 33.2073C39.9854 33.2166 39.9229 33.2146 39.8633 33.2014C39.8409 33.196 37.5616 32.6873 34.8546 31.8469L34.5508 31.7522C32.0167 30.9646 30.1856 30.3953 26.6465 30.3069C23.0128 30.2058 19.9073 31.908 14.5137 40.8157C7.66119 53.1716 4.63385 62.76 3.00787 67.9114C2.68365 68.9387 2.4151 69.7898 2.18268 70.4514C2.10748 70.6648 1.89264 70.7986 1.67291 70.7844C1.11542 70.7415 0.833069 70.8599 0.711853 70.9681C1.18011 71.6101 5.50446 73.5578 21.5079 73.7234C21.7501 73.7258 21.9561 73.9016 21.9962 74.1399C22.3917 76.4797 27.5499 85.9319 44.003 85.9319C60.4561 85.9319 65.6143 76.4797 66.0098 74.1399C66.0499 73.9016 66.2559 73.7258 66.4981 73.7234C82.4395 73.5585 86.7913 71.625 87.2881 70.9642C87.1636 70.8583 86.8802 70.7462 86.3321 70.7844ZM47.5059 35.0032C47.544 34.6814 47.7276 34.4026 48.0098 34.239C49.338 33.468 54.1221 30.9529 59.9405 30.9529C67.171 30.9529 68.3839 37.6287 68.584 39.6751C68.7217 41.0959 68.9092 45.8167 65.5069 46.8879C64.2891 47.2717 62.4766 47.4592 60.4883 47.4592C58.044 47.4592 55.3331 47.1755 53.1319 46.6252C51.1016 46.1179 47.6583 45.1926 47.4102 44.698C47.2569 44.3865 47.0762 38.5833 47.5059 35.0032ZM57.2194 51.9772L53.2194 51.2511C52.5463 51.141 51.8895 50.9394 51.2488 51.0191C50.602 51.0782 49.978 51.423 49.5651 51.9631C49.8847 51.3572 50.5176 50.9254 51.21 50.7785C51.9246 50.6412 52.613 50.8129 53.278 50.8728C54.6264 51.0409 55.9664 51.2656 57.3077 51.4856C58.6417 51.7462 59.9779 52.0026 61.2971 52.3426C62.6029 52.7028 63.9559 53.0281 65.1276 53.7444C64.5104 53.4584 63.8485 53.3058 63.1936 53.1456C62.5371 52.9863 61.8766 52.8428 61.2117 52.7176C59.8844 52.4575 58.5557 52.1984 57.2194 51.9772ZM60.3568 65.8694C58.7695 63.8231 57.166 61.8132 55.4325 59.9089C54.59 58.9365 53.7003 58.0064 52.7941 57.0975C52.3369 56.6533 51.8759 56.1887 51.358 55.8533C50.8274 55.5271 50.2122 55.2528 49.5651 55.3381C50.201 55.1375 50.8864 55.3706 51.475 55.6396C52.0709 55.9636 52.5549 56.3989 53.0551 56.8173C54.0313 57.6791 54.924 58.6235 55.8049 59.5761C56.6545 60.5568 57.488 61.5523 58.2527 62.6007C59.0162 63.6491 59.7382 64.7296 60.3568 65.8694ZM44.0026 34.8069H46.3984L46.0752 36.7363H44.0026H41.9301L41.6068 34.8069H44.0026ZM45.7734 39.1819H44.0026H42.2318L42.0651 37.7236H44.0026H45.9401L45.7734 39.1819ZM45.9401 41.5153H44.0026H42.0651L42.2497 39.9528H44.0026H45.7556L45.9401 41.5153ZM42.2219 42.7607L42.5604 42.5039C42.7151 42.3945 42.8835 42.3231 43.0491 42.2715C43.3817 42.1756 43.7144 42.1711 44.0026 42.1665C44.2909 42.1723 44.6238 42.1751 44.9559 42.2725C45.1214 42.324 45.2897 42.3954 45.4444 42.5046L45.7828 42.7617C46.2495 43.0817 46.7302 43.4255 47.1901 43.8069C46.6025 43.6854 46.0384 43.5184 45.4926 43.2673C45.3682 43.2173 45.1846 43.1129 45.0945 43.0588C45.0042 43.0107 44.8967 42.9792 44.7812 42.9587C44.5485 42.9118 44.294 42.9064 44.0026 42.916C43.7114 42.9075 43.4567 42.9114 43.2243 42.9597C43.1089 42.9801 43.0015 43.0115 42.9113 43.0595C42.8211 43.1135 42.6379 43.2188 42.5132 43.2683C41.9675 43.5197 41.4031 43.6861 40.8151 43.8069C41.2747 43.4247 41.7552 43.0803 42.2219 42.7607ZM19.421 39.6751C19.6212 37.6287 20.834 30.9529 28.0655 30.9529C33.8829 30.9529 38.6671 33.468 39.9952 34.2385C40.2764 34.4021 40.46 34.6799 40.5001 35.0012C40.5001 35.0022 40.5001 35.0027 40.5001 35.0032C40.9307 38.5994 40.7471 44.3962 40.5948 44.698C40.3467 45.1926 36.9044 46.1179 34.8741 46.6252C32.6729 47.1755 29.961 47.4592 27.5167 47.4592C25.5284 47.4592 23.7169 47.2717 22.4981 46.8879C19.0977 45.8171 19.2833 41.0964 19.421 39.6751ZM36.7565 51.0191C36.1158 50.9394 35.459 51.141 34.7858 51.2511L30.7859 51.9772C29.4496 52.1984 28.1208 52.4575 26.7936 52.7176C26.1286 52.8428 25.4681 52.9863 24.8116 53.1456C24.1568 53.3058 23.4949 53.4584 22.8776 53.7444C24.0494 53.0281 25.4024 52.7028 26.7082 52.3426C28.0273 52.0026 29.3635 51.7462 30.6975 51.4856C32.0389 51.2656 33.3788 51.0409 34.7272 50.8728C35.3923 50.8129 36.0807 50.6412 36.7953 50.7785C37.4877 50.9254 38.1205 51.3572 38.4401 51.9631C38.0273 51.423 37.4033 51.0782 36.7565 51.0191ZM38.4401 55.3381C37.793 55.2528 37.1779 55.5271 36.6473 55.8533C36.1293 56.1887 35.6683 56.6533 35.2112 57.0975C34.305 58.0064 33.4153 58.9365 32.5728 59.9089C30.8392 61.8132 29.2358 63.8231 27.6486 65.8694C28.2672 64.7296 28.9891 63.6491 29.7526 62.6007C30.5173 61.5523 31.3508 60.5568 32.2004 59.5761C33.0814 58.6235 33.974 57.6791 34.9502 56.8173C35.4504 56.3989 35.9343 55.9636 36.5303 55.6396C37.1188 55.3706 37.8043 55.1375 38.4401 55.3381ZM63.0125 72.0186L62.8259 72.6039C62.8839 72.8116 62.9249 73.0262 62.9249 73.2522C62.9249 74.592 61.835 75.6819 60.4952 75.6819C59.7491 75.6819 59.0889 75.3367 58.6429 74.8059C56.6125 75.8243 47.4061 80.4413 46.6856 80.7634C45.876 81.1257 44.6475 81.4319 44.003 81.4319C43.3594 81.4319 42.1299 81.1257 41.3194 80.7634C40.5989 80.4413 31.3932 75.8243 29.3631 74.8059C28.9171 75.3367 28.2569 75.6819 27.5108 75.6819C26.171 75.6819 25.0811 74.592 25.0811 73.2522C25.0811 73.0266 25.1219 72.8123 25.1797 72.6049L24.9928 72.0186L18.5339 63.3381L24.2565 69.7095L22.9971 65.7603L22.9781 65.7766L19.2214 60.8381L22.5044 64.2153L18.8464 52.7444L23.4952 65.2346L23.5464 65.2873L23.5225 65.3079L25.8063 71.4438C25.8197 71.4607 25.8272 71.48 25.8382 71.4981C26.2626 71.0933 26.8309 70.8412 27.4593 70.8277L27.2502 70.193C27.1877 70.1058 27.1501 70.0045 27.1522 69.8956L19.6589 47.1506L27.6463 68.5604L28.3194 66.8718C28.3672 66.7532 28.4581 66.657 28.5743 66.6033L32.8046 64.6433C32.8802 64.5565 32.9441 64.4836 33.0215 64.3948C36.5938 60.2971 38.8331 55.3318 38.8516 55.2854C38.918 55.0334 39.0948 52.9617 39.171 52.0769C39.3458 51.0486 41.086 48.4529 44.003 48.4529C46.9219 48.4529 48.6612 51.0486 48.8292 52.0354C48.8311 52.0491 48.8399 52.1418 48.8409 52.1555C48.9219 53.093 49.0909 55.0437 49.1631 55.3127C49.1729 55.3328 51.4561 60.3479 54.9835 64.3948C55.0609 64.4836 55.1248 64.5565 55.2004 64.6432L59.4317 66.6033C59.5479 66.657 59.6387 66.7532 59.6866 66.8718L60.3591 68.5603L68.3464 47.1506L60.8528 69.8962C60.8549 70.0044 60.8175 70.1049 60.7556 70.1917L60.546 70.8276C61.1733 70.8409 61.7408 71.0923 62.1651 71.4958C62.1732 71.4824 62.1752 71.467 62.1847 71.4542C62.1907 71.4462 62.1973 71.4385 62.2038 71.4308L64.4827 65.3079L64.4588 65.2873L64.51 65.2346L69.1589 52.7444L65.5009 64.2153L68.7839 60.8381L65.0272 65.7766L65.0082 65.7603L63.7489 69.7095L69.4714 63.3381L63.0125 72.0186Z" fill="black"/>
<path d="M53.3741 45.6555C57.1524 46.5994 62.6797 46.7307 65.2061 45.9338C67.8917 45.0886 67.7081 41.0037 67.588 39.7717C67.3594 37.4211 66.1553 31.9529 59.9405 31.9529C54.2286 31.9529 49.418 34.5774 48.5118 35.1038C48.5118 35.1038 48.4981 35.1218 48.4981 35.1223C48.0997 38.4495 48.254 43.032 48.3282 44.1555C48.8243 44.3621 50.3233 44.8928 53.3741 45.6555ZM52.6748 34.2045C54.0783 33.8926 55.515 33.7497 56.9653 33.8134C58.416 33.8605 59.8838 34.2026 61.2161 34.8895C62.5326 35.5997 63.6592 36.6894 64.4026 37.9811C64.7754 38.6183 65.0752 39.3235 65.3088 39.9858C65.5522 40.6588 65.7887 41.3384 65.9631 42.0517C66.1177 42.7662 66.2972 43.5095 66.0897 44.3717C65.9886 44.8019 65.6523 45.2358 65.2516 45.4401C64.838 45.644 64.4681 45.6973 64.1088 45.7601C61.2482 46.1216 58.3972 46.1501 55.5964 45.6506C57.0082 45.7242 58.4145 45.6589 59.815 45.5356C61.2109 45.4319 62.623 45.2934 63.9618 45.005C64.6676 44.8511 65.1461 44.6626 65.243 44.1464C65.3616 43.6198 65.221 42.9283 65.0458 42.2867C64.6603 40.9927 64.2039 39.6199 63.5411 38.4877C62.8894 37.3207 61.9128 36.3779 60.7633 35.718C59.6034 35.06 58.2694 34.7295 56.9078 34.577C55.5431 34.4251 54.1388 34.479 52.7693 34.6826C51.3985 34.8861 50.032 35.2729 48.8151 35.9944C49.9119 35.0807 51.2952 34.5753 52.6748 34.2045Z" fill="black"/>
</svg>
